<mxfile host="app.diagrams.net" modified="2024-02-08T14:55:22.559Z" agent="Mozilla/5.0 (Windows NT 10.0; Win64; x64) AppleWebKit/537.36 (KHTML, like Gecko) Chrome/119.0.0.0 Safari/537.36" etag="--OWnGFt9HeuPwJBUd_a" version="23.1.2" type="github">
  <diagram name="Page-1" id="822b0af5-4adb-64df-f703-e8dfc1f81529">
    <mxGraphModel dx="990" dy="1380" grid="1" gridSize="10" guides="1" tooltips="1" connect="1" arrows="1" fold="1" page="1" pageScale="1" pageWidth="1100" pageHeight="850" background="none" math="0" shadow="0">
      <root>
        <mxCell id="0" />
        <mxCell id="1" parent="0" />
        <mxCell id="7d933b09d9755ecc-12" value="User forest" style="triangle;whiteSpace=wrap;html=1;rounded=0;shadow=0;comic=0;strokeWidth=1;fontFamily=Verdana;direction=north;labelPosition=center;verticalLabelPosition=bottom;align=center;verticalAlign=top;" parent="1" vertex="1">
          <mxGeometry y="660" width="286" height="340" as="geometry" />
        </mxCell>
        <mxCell id="-IeLTNNZ7KWvEU6to_KN-1" value="fw01-nathan&lt;br&gt;&lt;br&gt;10.0.17.104" style="whiteSpace=wrap;html=1;aspect=fixed;" vertex="1" parent="1">
          <mxGeometry x="610" y="385" width="80" height="80" as="geometry" />
        </mxCell>
        <mxCell id="-IeLTNNZ7KWvEU6to_KN-2" value="wks01-nathan&lt;br&gt;&lt;br&gt;10.0.5.100" style="whiteSpace=wrap;html=1;aspect=fixed;" vertex="1" parent="1">
          <mxGeometry x="420" y="420" width="80" height="80" as="geometry" />
        </mxCell>
        <mxCell id="-IeLTNNZ7KWvEU6to_KN-3" value="ad01-nathan&lt;br&gt;&lt;br&gt;10.0.5.5" style="whiteSpace=wrap;html=1;aspect=fixed;" vertex="1" parent="1">
          <mxGeometry x="426" y="250" width="80" height="80" as="geometry" />
        </mxCell>
        <mxCell id="-IeLTNNZ7KWvEU6to_KN-4" value="dhcp01-nathan&lt;br&gt;&lt;br&gt;10.0.5.3" style="whiteSpace=wrap;html=1;aspect=fixed;" vertex="1" parent="1">
          <mxGeometry x="290" y="260" width="80" height="80" as="geometry" />
        </mxCell>
      </root>
    </mxGraphModel>
  </diagram>
</mxfile>
